<svg id="Layer_1" data-name="Layer 1" xmlns="http://www.w3.org/2000/svg" xmlns:xlink="http://www.w3.org/1999/xlink" viewBox="0 0 104.9 88.78"><defs><style>.cls-1{fill:url(#linear-gradient);}.cls-2{fill:url(#linear-gradient-2);}</style><linearGradient id="linear-gradient" x1="362.16" y1="298.6" x2="363.66" y2="226.4" gradientUnits="userSpaceOnUse"><stop offset="0" stop-color="#f9ed32"/><stop offset="1" stop-color="#ef4136"/></linearGradient><linearGradient id="linear-gradient-2" x1="405.78" y1="322.07" x2="405.78" y2="268.91" xlink:href="#linear-gradient"/></defs><path class="cls-1" d="M364.16,254.23l14.95-28.33a.52.52,0,0,1,.47-.29h19.65a.54.54,0,0,1,.48.78l-28,58.07a.56.56,0,0,1-.49.3h-15.6a.55.55,0,0,1-.49-.3L327.6,226.62a.54.54,0,0,1,.49-.77H349.4a.53.53,0,0,1,.48.31l13.32,28.05A.53.53,0,0,0,364.16,254.23Z" transform="translate(-327.55 -225.61)"/><path class="cls-2" d="M421.23,279.19A59.43,59.43,0,0,0,410.08,274q-6.81-2.46-9.47-4.62T398,264.69A5.81,5.81,0,0,1,400.7,260a10.89,10.89,0,0,1,6.84-1.64,9.72,9.72,0,0,1,6.66,2.47,7.69,7.69,0,0,1,2.26,5.57.82.82,0,0,0,.79.82l14.34.52a.83.83,0,0,0,.86-.82,18.66,18.66,0,0,0-2.78-10,20.29,20.29,0,0,0-8.57-7.58,31.28,31.28,0,0,0-12.75-3,60,60,0,0,0-11.21.45.83.83,0,0,0-.57.45c-1.86,3.85-3.76,7.72-5.53,11.43-2.37,5-4.74,9.8-7.2,14.88a.81.81,0,0,0,.09.87c2.18,2.68,6.62,5.4,10.47,7.45a84.62,84.62,0,0,0,10.08,4.42q6.18,2.31,8.59,4.36a6.55,6.55,0,0,1,2.29,5.55,5.63,5.63,0,0,1-2.48,4.72,10.38,10.38,0,0,1-6.34,1.48q-6.19-.23-8.87-2.85-2.48-2.42-2.49-7.14a.84.84,0,0,0-.79-.84L380,291a.82.82,0,0,0-.86.81A20.34,20.34,0,0,0,382,302.67a22,22,0,0,0,9.57,8.27,36.07,36.07,0,0,0,14.53,3.42q11.46.4,18.21-4.31a16.18,16.18,0,0,0,7.07-13.41Q431.78,285.77,421.23,279.19Z" transform="translate(-327.55 -225.61)"/></svg>